<?xml version="1.0" encoding="iso-8859-1"?>
<!-- Uploaded to: SVG Repo, www.svgrepo.com, Generator: SVG Repo Mixer Tools -->
<!DOCTYPE svg PUBLIC "-//W3C//DTD SVG 1.1//EN" "http://www.w3.org/Graphics/SVG/1.1/DTD/svg11.dtd">
<svg fill="#000000" version="1.1" id="Capa_1" xmlns="http://www.w3.org/2000/svg" xmlns:xlink="http://www.w3.org/1999/xlink" 
	 width="800px" height="800px" viewBox="0 0 220.001 220.001"
	 xml:space="preserve">
<g>
	<path d="M182.949,121.266c0-11.95-7.354-22.21-17.771-26.508V55.177C165.177,24.752,140.425,0,110,0S54.824,24.752,54.824,55.177
		v39.581c-10.417,4.297-17.771,14.558-17.771,26.508c0,15.805,12.858,28.662,28.663,28.662h0.458l-11.231,61.415
		c-0.729,3.986,1.912,7.808,5.897,8.537c0.446,0.082,0.89,0.121,1.328,0.121c3.475,0,6.562-2.478,7.209-6.019l11.713-64.053h57.818
		l11.713,64.053c0.646,3.541,3.734,6.019,7.209,6.019c0.438,0,0.882-0.039,1.328-0.121c3.986-0.729,6.626-4.551,5.896-8.537
		l-11.23-61.415h0.457C170.09,149.928,182.949,137.07,182.949,121.266z M110,14.674c22.334,0,40.503,18.169,40.503,40.503v37.425
		H69.498V55.177C69.498,32.843,87.667,14.674,110,14.674z M51.727,121.266c0-7.714,6.276-13.99,13.989-13.99h88.569
		c7.713,0,13.988,6.276,13.988,13.99c0,7.713-6.275,13.988-13.988,13.988h-9.086c-0.012,0-0.023,0-0.035,0h-70.35
		c-0.001,0-0.002,0-0.003,0h-9.096C58.002,135.254,51.727,128.979,51.727,121.266z"/>
</g>
</svg>