<?xml version="1.0" encoding="iso-8859-1"?>
<!-- Uploaded to: SVG Repo, www.svgrepo.com, Generator: SVG Repo Mixer Tools -->
<svg fill="#000000" height="800px" width="800px" version="1.1" id="Layer_1" xmlns="http://www.w3.org/2000/svg" xmlns:xlink="http://www.w3.org/1999/xlink" 
	 viewBox="0 0 512 512" xml:space="preserve">
<g>
	<g>
		<path d="M508,92H4c-2.208,0-4,1.792-4,4v16c0,2.208,1.792,4,4,4h504c2.208,0,4-1.792,4-4V96C512,93.792,510.208,92,508,92z
			 M504,108H8v-8h496V108z"/>
	</g>
</g>
<g>
	<g>
		<path d="M492,112c-2.208,0-4,1.792-4,4v260c0,6.616-5.384,12-12,12H36c-6.616,0-12-5.384-12-12V116c0-2.208-1.792-4-4-4
			s-4,1.792-4,4v260c0,11.028,8.972,20,20,20h440c11.028,0,20-8.972,20-20V116C496,113.792,494.208,112,492,112z"/>
	</g>
</g>
<g>
	<g>
		<path d="M256,112c-2.208,0-4,1.792-4,4v276c0,2.208,1.792,4,4,4s4-1.792,4-4V116C260,113.792,258.208,112,256,112z"/>
	</g>
</g>
<g>
	<g>
		<g>
			<path d="M440,128h-16c-2.208,0-4,1.792-4,4s1.792,4,4,4h16c2.208,0,4-1.792,4-4S442.208,128,440,128z"/>
			<path d="M472,128h-16c-2.208,0-4,1.792-4,4s1.792,4,4,4h12v52c0,2.208,1.792,4,4,4s4-1.792,4-4v-56
				C476,129.792,474.208,128,472,128z"/>
		</g>
	</g>
</g>
<g>
	<g>
		<path d="M40,276c-2.208,0-4,1.792-4,4v8c0,2.208,1.792,4,4,4s4-1.792,4-4v-8C44,277.792,42.208,276,40,276z"/>
	</g>
</g>
<g>
	<g>
		<path d="M40,304c-2.208,0-4,1.792-4,4v60c0,2.208,1.792,4,4,4s4-1.792,4-4v-60C44,305.792,42.208,304,40,304z"/>
	</g>
</g>
<g>
	<g>
		<path d="M60,388c-2.208,0-4,1.792-4,4v20h-8v-20c0-2.208-1.792-4-4-4s-4,1.792-4,4v24c0,2.208,1.792,4,4,4h16c2.208,0,4-1.792,4-4
			v-24C64,389.792,62.208,388,60,388z"/>
	</g>
</g>
<g>
	<g>
		<path d="M472,388c-2.208,0-4,1.792-4,4v20h-8v-20c0-2.208-1.792-4-4-4s-4,1.792-4,4v24c0,2.208,1.792,4,4,4h16
			c2.208,0,4-1.792,4-4v-24C476,389.792,474.208,388,472,388z"/>
	</g>
</g>
<g>
	<g>
		<path d="M222,236c-7.72,0-14,6.28-14,14c0,7.72,6.28,14,14,14c7.72,0,14-6.28,14-14C236,242.28,229.72,236,222,236z M222,256
			c-3.308,0-6-2.692-6-6s2.692-6,6-6s6,2.692,6,6S225.308,256,222,256z"/>
	</g>
</g>
<g>
	<g>
		<path d="M290,236c-7.72,0-14,6.28-14,14c0,7.72,6.28,14,14,14c7.72,0,14-6.28,14-14C304,242.28,297.72,236,290,236z M290,256
			c-3.308,0-6-2.692-6-6s2.692-6,6-6c3.308,0,6,2.692,6,6S293.308,256,290,256z"/>
	</g>
</g>
</svg>