<?xml version="1.0" encoding="iso-8859-1"?>
<!-- Uploaded to: SVG Repo, www.svgrepo.com, Generator: SVG Repo Mixer Tools -->
<!DOCTYPE svg PUBLIC "-//W3C//DTD SVG 1.1//EN" "http://www.w3.org/Graphics/SVG/1.1/DTD/svg11.dtd">
<svg fill="#000000" version="1.1" id="Capa_1" xmlns="http://www.w3.org/2000/svg" xmlns:xlink="http://www.w3.org/1999/xlink" 
	 width="800px" height="800px" viewBox="0 0 233.479 233.479"
	 xml:space="preserve">
<g>
	<path d="M196.241,101.737h-27.231V52.27c0-28.821-23.448-52.27-52.27-52.27c-28.82,0-52.268,23.448-52.268,52.27v49.468H37.24
		c-4.015,0-7.269,3.254-7.269,7.269s3.254,7.269,7.269,7.269h7.088l-0.011,86.339c0,8.097,6.235,14.755,14.154,15.448v3.973
		c0,6.311,5.135,11.443,11.445,11.443c6.309,0,11.44-5.133,11.44-11.443v-3.904h70.765v3.904c0,6.311,5.133,11.443,11.44,11.443
		c6.312,0,11.445-5.133,11.445-11.443v-3.973c7.919-0.693,14.153-7.352,14.153-15.448v-86.339h7.078
		c4.015,0,7.269-3.254,7.269-7.269S200.255,101.737,196.241,101.737z M79.009,52.27c0-20.805,16.926-37.731,37.73-37.731
		c20.806,0,37.732,16.926,37.732,37.731v49.468H79.009V52.27z M174.626,202.613c0,0.54-0.438,0.979-0.979,0.979H59.833
		c-0.54,0-0.979-0.438-0.979-0.979v-35.239h39.563c0.227,3.567,3.185,6.394,6.808,6.394h23.029c3.625,0,6.583-2.825,6.811-6.394
		h39.562L174.626,202.613L174.626,202.613z M174.626,152.838H58.854v-35.584c0-0.541,0.438-0.979,0.979-0.979h38.582
		c0.21,3.584,3.175,6.428,6.81,6.428h23.029c3.637,0,6.602-2.844,6.812-6.428h38.582c0.539,0,0.979,0.438,0.979,0.979
		L174.626,152.838L174.626,152.838z"/>
</g>
</svg>