<?xml version="1.0" encoding="iso-8859-1"?>
<!-- Uploaded to: SVG Repo, www.svgrepo.com, Generator: SVG Repo Mixer Tools -->
<svg fill="#000000" version="1.1" id="Layer_1" xmlns="http://www.w3.org/2000/svg" xmlns:xlink="http://www.w3.org/1999/xlink" 
	 viewBox="0 0 488.175 488.175" xml:space="preserve">
<g id="XMLID_853_">
	<g>
		<g>
			<path d="M437.014,282.226h-2.233V167.81c0-45.013-35.633-81.849-80.171-83.811C341.151,35.614,296.703,0,244.088,0
				c-52.616,0-97.066,35.614-110.524,84c-44.538,1.962-80.17,38.798-80.17,83.811v114.416h-2.232
				C22.952,282.226,0,305.178,0,333.387v25.116v15.256v29.04c0,20.863,12.56,38.839,30.51,46.792v38.584h15.256v-34.501
				c1.774,0.187,3.573,0.286,5.395,0.286h385.852c1.822,0,3.621-0.1,5.394-0.286v34.501h15.256v-38.583
				c17.951-7.954,30.512-25.929,30.512-46.793v-69.412C488.175,305.178,465.224,282.226,437.014,282.226z M358.503,99.582
				c34.276,3.807,61.021,32.953,61.021,68.228v114.416h-60.737V114.701c0-2.695-0.101-5.366-0.284-8.014V99.582z M144.927,107.142
				c3.875-51.316,46.868-91.886,99.161-91.886c52.295,0,95.291,40.577,99.159,91.901v175.069h-198.32V107.142z M68.65,167.81
				c0-35.275,26.745-64.421,61.021-68.228v7.088c-0.184,2.654-0.285,5.331-0.285,8.031v167.525H68.65V167.81z M15.256,333.387
				c0-19.799,16.106-35.905,35.905-35.905h2.232h75.992h15.542h91.532v61.021H15.256V333.387z M472.918,402.799
				c0.001,19.799-16.106,35.905-35.904,35.905H51.161c-19.799,0-35.905-16.106-35.905-35.905v-29.04h457.662V402.799z
				 M472.919,358.503H251.716v-61.021h91.531h15.54h75.993h2.234c19.799,0,35.905,16.107,35.905,35.905V358.503z"/>
			<rect x="213.576" y="396.642" width="61.022" height="15.256"/>
			<rect x="91.533" y="320.365" width="68.649" height="15.256"/>
			<rect x="327.993" y="320.365" width="68.649" height="15.256"/>
			
				<rect x="186.338" y="160.18" transform="matrix(0.7071 -0.7071 0.7071 0.7071 -48.2835 219.0488)" width="107.871" height="15.256"/>
			
				<rect x="265.064" y="169.906" transform="matrix(-0.7071 -0.7071 0.7071 -0.7071 332.025 515.095)" width="15.256" height="37.755"/>
		</g>
	</g>
</g>
</svg>