<?xml version="1.0" encoding="iso-8859-1"?>
<!-- Uploaded to: SVG Repo, www.svgrepo.com, Generator: SVG Repo Mixer Tools -->
<svg fill="#000000" height="800px" width="800px" version="1.1" id="Layer_1" xmlns="http://www.w3.org/2000/svg" xmlns:xlink="http://www.w3.org/1999/xlink" 
	 viewBox="0 0 490.667 490.667" xml:space="preserve">
<g>
	<g>
		<g>
			<path d="M469.333,298.667H416v-288C416,4.8,411.2,0,405.333,0c-5.867,0-10.667,4.8-10.667,10.667v288H96v-288
				C96,4.8,91.2,0,85.333,0c-5.867,0-10.667,4.8-10.667,10.667v288H21.333c-5.867,0-10.667,4.8-10.667,10.667
				c0,5.867,4.8,10.667,10.667,10.667h32v160c0,5.867,4.8,10.667,10.667,10.667c5.867,0,10.667-4.8,10.667-10.667v-53.333H416V480
				c0,5.867,4.8,10.667,10.667,10.667c5.867,0,10.667-4.8,10.667-10.667V320h32C475.2,320,480,315.2,480,309.333
				C480,303.467,475.2,298.667,469.333,298.667z M234.667,405.333h-160V320h160V405.333z M416,405.333H256V320h160V405.333z"/>
			<path d="M245.44,277.44c71.787,0,128-60.48,128-137.6S316.053,0.107,245.44,0.107s-128,62.72-128,139.733
				S173.76,277.44,245.44,277.44z M245.44,21.44c58.773,0,106.667,53.12,106.667,118.4c0,65.28-46.827,116.267-106.667,116.267
				S138.773,205.013,138.773,139.84C138.773,74.667,186.667,21.44,245.44,21.44z"/>
			<path d="M149.333,373.333h21.333c5.867,0,10.667-4.8,10.667-10.667c0-5.867-4.8-10.667-10.667-10.667h-21.333
				c-5.867,0-10.667,4.8-10.667,10.667C138.667,368.533,143.467,373.333,149.333,373.333z"/>
			<path d="M320,373.333h21.333c5.867,0,10.667-4.8,10.667-10.667C352,356.8,347.2,352,341.333,352H320
				c-5.867,0-10.667,4.8-10.667,10.667C309.333,368.533,314.133,373.333,320,373.333z"/>
		</g>
	</g>
</g>
</svg>