<?xml version="1.0" encoding="iso-8859-1"?>
<!-- Uploaded to: SVG Repo, www.svgrepo.com, Generator: SVG Repo Mixer Tools -->
<svg fill="#000000" height="800px" width="800px" version="1.1" id="Layer_1" xmlns="http://www.w3.org/2000/svg" xmlns:xlink="http://www.w3.org/1999/xlink" 
	 viewBox="0 0 512 512" xml:space="preserve">
<g>
	<g>
		<g>
			<polygon points="337.406,204.751 337.406,204.751 337.406,204.752 			"/>
			<path d="M337.406,204.751c0-39.624-10.649-77.788-29.215-104.706l-27.178,18.745c14.856,21.539,23.376,52.871,23.376,85.961
				H337.406z"/>
			<path d="M424.063,444.994v-269.02h-23.14c-4.243-42.747-17.904-82.355-39.525-113.703C333.701,22.115,296.271,0,256,0
				s-77.702,22.115-105.398,62.271c-21.621,31.348-35.282,70.956-39.525,113.703h-23.14v269.02l-20.635,55.5L98.248,512
				l17.671-47.529h280.16L413.752,512l30.946-11.506L424.063,444.994z M177.781,81.016c21.348-30.953,49.128-48,78.219-48
				s56.871,17.047,78.219,48c22.64,32.826,35.109,76.769,35.109,123.737c0,46.968-12.469,90.91-35.109,123.735
				c-21.348,30.953-49.129,48-78.219,48c-29.09,0-56.87-17.047-78.219-48c-22.641-32.826-35.109-76.769-35.109-123.735
				C142.671,157.786,155.139,113.842,177.781,81.016z M120.953,431.455V284.181c6.917,23.189,16.893,44.561,29.647,63.052
				c27.697,40.155,65.128,62.271,105.398,62.271s77.702-22.115,105.398-62.271c12.755-18.492,22.732-39.865,29.648-63.054v147.276
				H120.953z"/>
		</g>
	</g>
</g>
</svg>