<?xml version="1.0" encoding="iso-8859-1"?>
<!-- Uploaded to: SVG Repo, www.svgrepo.com, Generator: SVG Repo Mixer Tools -->
<svg height="800px" width="800px" version="1.1" id="Layer_1" xmlns="http://www.w3.org/2000/svg" xmlns:xlink="http://www.w3.org/1999/xlink" 
	 viewBox="0 0 512 512" xml:space="preserve">
<g>
	<g>
		<path style="fill:#010101;" d="M512,100.221c0-67.54-161.226-84.97-256-84.97S0,33.77,0,101.311
			c0,62.598,138.49,82.15,234.213,84.677v173.514c-35.078,10.781-61.805,47.166-68.233,93.673h-29.81
			c-11.983,0-21.787,9.804-21.787,21.787s9.804,21.787,21.787,21.787h239.66c11.983,0,20.698-9.804,21.787-21.787
			c0-11.983-9.804-21.787-21.787-21.787h-29.81c-6.428-46.508-33.155-82.892-68.233-93.673V185.971
			C373.51,183.307,512,162.819,512,100.221z M42.485,101.311C51.2,84.97,129.634,58.826,256,58.826s204.8,27.234,213.515,42.485
			c-8.56,14.98-84.387,41.518-206.826,42.457c-2.11-0.686-4.357-1.061-6.689-1.061c-2.331,0-4.578,0.375-6.689,1.061
			C126.872,142.829,51.045,116.291,42.485,101.311z M301.862,453.174h-91.724c6.017-31.143,24.478-54.468,45.862-54.468
			S295.845,422.031,301.862,453.174z"/>
	</g>
</g>
</svg>