<?xml version="1.0" encoding="iso-8859-1"?>
<!-- Uploaded to: SVG Repo, www.svgrepo.com, Generator: SVG Repo Mixer Tools -->
<svg fill="#000000" height="800px" width="800px" version="1.1" id="Layer_1" xmlns="http://www.w3.org/2000/svg" xmlns:xlink="http://www.w3.org/1999/xlink" 
	 viewBox="0 0 512 512" xml:space="preserve">
<g>
	<g>
		<g>
			<path d="M448,192H209.679c2.358-6.674,3.654-13.85,3.654-21.333V128c0-9.151-5.773-16.934-13.867-19.963l28.952-28.952
				c8.331-8.331,8.331-21.839,0-30.17s-21.839-8.331-30.17,0l-27.582,27.582V21.333C170.667,9.551,161.115,0,149.333,0
				C137.551,0,128,9.551,128,21.333v55.163l-27.582-27.582c-8.331-8.331-21.839-8.331-30.17,0s-8.331,21.839,0,30.17L99.2,108.037
				c-8.094,3.03-13.867,10.812-13.867,19.963v42.667c0,7.483,1.296,14.66,3.654,21.333H64c-35.249,0-64,28.751-64,64
				s28.751,64,64,64h128v106.667c0,23.589-19.078,42.667-42.667,42.667c-11.782,0-21.333,9.551-21.333,21.333
				S137.551,512,149.333,512c39.786,0,73.183-27.182,82.649-64h48.036c9.465,36.818,42.863,64,82.649,64
				c11.782,0,21.333-9.551,21.333-21.333s-9.551-21.333-21.333-21.333c-23.589,0-42.667-19.078-42.667-42.667V320h128
				c35.249,0,64-28.751,64-64S483.249,192,448,192z M128,170.667v-21.333h42.667v21.333c0,11.791-9.542,21.333-21.333,21.333
				S128,182.458,128,170.667z M277.333,405.333h-42.667V320h42.667V405.333z M448,277.333H320H192H64
				c-11.685,0-21.333-9.649-21.333-21.333S52.315,234.667,64,234.667h384c11.685,0,21.333,9.649,21.333,21.333
				S459.685,277.333,448,277.333z"/>
			<path d="M341.333,128C329.551,128,320,137.551,320,149.333c0,11.782,9.551,21.333,21.333,21.333h64
				c11.782,0,21.333-9.551,21.333-21.333c0-11.782-9.551-21.333-21.333-21.333H341.333z"/>
			<path d="M320,106.667h64c11.782,0,21.333-9.551,21.333-21.333C405.333,73.551,395.782,64,384,64h-64
				c-11.782,0-21.333,9.551-21.333,21.333C298.667,97.115,308.218,106.667,320,106.667z"/>
		</g>
	</g>
</g>
</svg>