<?xml version="1.0" encoding="iso-8859-1"?>
<!-- Uploaded to: SVG Repo, www.svgrepo.com, Generator: SVG Repo Mixer Tools -->
<svg fill="#000000" height="800px" width="800px" version="1.1" id="Layer_1" xmlns="http://www.w3.org/2000/svg" xmlns:xlink="http://www.w3.org/1999/xlink" 
	 viewBox="0 0 491.413 491.413" xml:space="preserve">
<g>
	<g>
		<path d="M491.413,133.867c0-62.4-126.613-96.107-245.653-96.107S0,71.467,0,133.867c0,60.48,118.72,93.973,234.453,96v125.76
			c-0.213,0.747-0.533,1.387-0.853,2.133c-4.587,0.32-8.533,3.52-9.6,8.107c-1.173,4.16-2.773,8.107-4.8,11.947
			c-1.067,0.533-2.24,0.853-3.413,1.067c-12.373,1.6-30.08-17.707-36.693-27.307c-3.307-4.907-10.027-6.08-14.827-2.773
			c-4.8,3.307-6.08,10.027-2.773,14.827c2.347,3.413,20.373,29.013,42.987,35.2c-13.013,14.08-34.027,28.373-67.84,33.6
			c-5.867,0.853-9.813,6.293-8.96,12.16c0.747,5.227,5.333,9.067,10.56,9.067c0.533,0,1.067,0,1.6-0.107
			c56.853-8.64,83.733-39.68,95.787-61.227c3.627-3.093,6.827-6.613,9.387-10.667c2.56,3.947,5.76,7.573,9.387,10.667
			c12.16,21.547,39.04,52.587,95.893,61.227c0.533,0.107,1.067,0.107,1.6,0.107c5.867,0,10.667-4.8,10.667-10.667
			c0-5.333-3.84-9.813-9.067-10.56c-33.92-5.227-55.04-19.52-67.947-33.6c22.613-6.293,40.747-31.893,43.093-35.307
			c3.307-4.907,2.027-11.52-2.773-14.827c-4.907-3.307-11.52-2.027-14.827,2.773c-6.507,9.6-24.213,29.013-36.693,27.307
			c-1.173-0.107-2.453-0.533-3.52-1.067c-1.92-3.84-3.52-7.787-4.693-11.947c-1.067-4.48-5.013-7.787-9.6-8
			c-0.32-0.747-0.533-1.387-0.853-2.133l0.107-125.653C371.84,228.16,491.413,194.56,491.413,133.867z M248.32,208.747
			c-1.707-0.747-3.733-0.747-5.44,0C112.747,208,22.187,169.067,22.187,134.08c0-35.307,91.947-74.667,224-74.667
			s224,39.36,224,74.667C470.187,169.173,379.2,208.32,248.32,208.747z"/>
	</g>
</g>
</svg>