<?xml version="1.0" encoding="iso-8859-1"?>
<!-- Uploaded to: SVG Repo, www.svgrepo.com, Generator: SVG Repo Mixer Tools -->
<svg fill="#000000" height="800px" width="800px" version="1.1" id="Layer_1" xmlns="http://www.w3.org/2000/svg" xmlns:xlink="http://www.w3.org/1999/xlink" 
	 viewBox="0 0 512.01 512.01" xml:space="preserve">
<g transform="translate(-1)">
	<g>
		<g>
			<path d="M286.087,376.035c3.14-5.163,5.052-11.162,5.052-17.63c0-6.315-1.835-12.151-4.838-17.229l68.104-68.105h22.067
				c14.114,0,25.6-11.486,25.6-25.6s-11.486-25.6-25.6-25.6h-45.926l12.8-25.6H170.665l12.8,25.6h-45.926
				c-14.114,0-25.6,11.486-25.6,25.6s11.486,25.6,25.6,25.6h22.067l68.105,68.105c-2.995,5.077-4.838,10.914-4.838,17.229
				c0,6.468,1.911,12.459,5.052,17.621l-62.635,70.579c-3.123,3.533-2.807,8.917,0.717,12.049c1.63,1.442,3.652,2.15,5.666,2.15
				c2.355,0,4.702-0.973,6.383-2.867l62.131-70.016c4.984,2.859,10.675,4.617,16.819,4.617c6.144,0,11.836-1.758,16.819-4.617
				l62.131,70.016c1.681,1.894,4.036,2.867,6.383,2.867c2.022,0,4.045-0.708,5.666-2.15c3.524-3.132,3.84-8.516,0.717-12.049
				L286.087,376.035z M137.539,256.005c-4.71,0-8.533-3.831-8.533-8.533c0-4.702,3.823-8.533,8.533-8.533h59.733h119.467h59.733
				c4.71,0,8.533,3.831,8.533,8.533c0,4.702-3.823,8.533-8.533,8.533H137.539z M257.005,324.272c-6.306,0-12.151,1.835-17.229,4.838
				l-56.038-56.038h146.534l-56.038,56.038C269.157,326.106,263.32,324.272,257.005,324.272z"/>
			<path d="M197.276,341.336c0-14.114-11.486-25.6-25.6-25.6h-76.8c-0.973,0-1.954,0.154-2.935,0.273
				c-6.042-5.41-13.935-8.806-22.665-8.806c-0.7,0-1.348,0.171-2.039,0.205l-13.67-47.855c3.413-2.185,6.349-5.077,8.439-8.695
				c3.439-5.939,4.343-12.834,2.577-19.413L51.33,181.976c-3.652-13.628-17.715-21.743-31.351-18.091
				c-6.579,1.758-12.1,5.999-15.522,11.93c-3.43,5.939-4.343,12.834-2.577,19.422l13.252,49.451
				c1.758,6.588,5.999,12.109,11.938,15.531c3.055,1.766,6.409,2.654,9.805,3.063l14.097,49.34
				c-9.489,6.067-15.829,16.64-15.829,28.715c0,15.864,10.914,29.107,25.6,32.922v78.012c0,4.719,3.814,8.533,8.533,8.533
				s8.533-3.814,8.533-8.533v-78.012c5.342-1.382,10.138-4.019,14.131-7.586c0.981,0.12,1.963,0.265,2.935,0.265h34.133v85.333
				c0,4.719,3.814,8.533,8.533,8.533s8.533-3.814,8.533-8.533v-85.333h25.6C185.79,366.936,197.276,355.458,197.276,341.336z
				 M102.308,349.869c0.085-0.316,0.111-0.649,0.188-0.964c0.119-0.512,0.213-1.033,0.307-1.553
				c0.358-1.971,0.606-3.977,0.606-6.016c0-2.039-0.247-4.036-0.606-6.007c-0.094-0.529-0.188-1.041-0.307-1.553
				c-0.077-0.324-0.102-0.657-0.188-0.973h69.367c4.71,0,8.533,3.831,8.533,8.533c0,4.71-3.823,8.533-8.533,8.533H102.308z"/>
			<path d="M509.56,175.817c-3.43-5.931-8.943-10.172-15.531-11.93c-13.636-3.661-27.691,4.463-31.343,18.099l-13.252,49.451
				c-1.766,6.588-0.862,13.483,2.577,19.422c2.082,3.618,5.026,6.511,8.439,8.687l-13.679,47.863
				c-0.683-0.043-1.331-0.205-2.031-0.205c-8.73,0-16.623,3.396-22.664,8.806c-0.981-0.128-1.971-0.273-2.935-0.273h-76.8
				c-14.114,0-25.6,11.486-25.6,25.6c0,14.114,11.486,25.6,25.6,25.6h25.6v85.333c0,4.71,3.814,8.533,8.533,8.533
				s8.533-3.823,8.533-8.533v-85.333h34.133c0.964,0,1.954-0.145,2.935-0.273c3.994,3.575,8.789,6.204,14.131,7.595v78.012
				c0,4.71,3.814,8.533,8.533,8.533c4.719,0,8.533-3.823,8.533-8.533V374.26c14.686-3.814,25.6-17.067,25.6-32.922
				c0-12.075-6.34-22.648-15.829-28.715l14.097-49.348c3.396-0.401,6.741-1.289,9.805-3.055c5.939-3.43,10.18-8.943,11.938-15.531
				l13.244-49.451C513.895,188.651,512.99,181.756,509.56,175.817z M411.213,347.354c0.094,0.521,0.188,1.033,0.307,1.553
				c0.068,0.316,0.102,0.648,0.188,0.964h-69.367c-4.71,0-8.533-3.831-8.533-8.533c0-4.702,3.823-8.533,8.533-8.533h69.367
				c-0.085,0.316-0.119,0.649-0.188,0.964c-0.119,0.521-0.213,1.033-0.307,1.553c-0.358,1.971-0.606,3.977-0.606,6.016
				C410.607,343.378,410.855,345.383,411.213,347.354z"/>
			<path d="M162.134,179.205h189.747l15.164-30.319c1.323-2.645,1.178-5.786-0.375-8.303c-1.562-2.509-4.301-4.045-7.262-4.045
				h-34.133v-17.067c0-37.641-30.626-68.267-68.267-68.267c-37.641,0-68.267,30.626-68.267,68.267v17.067h-34.133
				c-2.961,0-5.7,1.536-7.262,4.045c-1.553,2.517-1.698,5.658-0.375,8.303L162.134,179.205z M205.807,119.472
				c0-28.237,22.963-51.2,51.2-51.2s51.2,22.963,51.2,51.2v17.067h-102.4V119.472z"/>
		</g>
	</g>
</g>
</svg>