<?xml version="1.0" encoding="iso-8859-1"?>
<!-- Uploaded to: SVG Repo, www.svgrepo.com, Generator: SVG Repo Mixer Tools -->
<svg fill="#000000" height="800px" width="800px" version="1.1" id="Capa_1" xmlns="http://www.w3.org/2000/svg" xmlns:xlink="http://www.w3.org/1999/xlink" 
	 viewBox="0 0 58 58" xml:space="preserve">
<g>
	<g>
		<path d="M58,28.5c0-5.238-4.264-9.5-9.505-9.5H23.387l1.561-4.684c0.103-0.305,0.051-0.641-0.137-0.901
			C24.623,13.154,24.321,13,24,13h-6.484c0.105-0.327,0.759-1.769,4.432-3.606c0.494-0.247,0.694-0.848,0.447-1.342
			c-0.248-0.494-0.848-0.693-1.342-0.447c-2.462,1.231-3.827,2.388-4.592,3.32c0.035-3.854,0.696-7.59,1.856-7.977
			c0.523-0.174,0.807-0.74,0.632-1.265c-0.175-0.523-0.735-0.807-1.265-0.632c-2.324,0.774-3.016,4.796-3.183,8.114
			c-0.882-1.334-2.226-2.528-4.213-3.124C9.755,5.883,9.2,6.184,9.042,6.713C8.884,7.241,9.184,7.799,9.713,7.958
			c3.05,0.915,3.927,3.572,4.181,5.042H10c-0.321,0-0.623,0.154-0.811,0.415c-0.188,0.261-0.239,0.597-0.137,0.901L10.613,19H9.505
			C4.264,19,0,23.262,0,28.5S4.264,38,9.505,38h0.198l-4.67,17.745c-0.141,0.534,0.178,1.081,0.712,1.222
			C5.831,56.989,5.916,57,6.001,57c0.443,0,0.848-0.297,0.966-0.745L11.771,38h33.459l4.804,18.255
			C50.151,56.703,50.556,57,50.999,57c0.085,0,0.17-0.011,0.256-0.033c0.534-0.141,0.853-0.688,0.712-1.222L47.297,38h1.198
			C53.736,38,58,33.738,58,28.5z M48.495,21C52.634,21,56,24.364,56,28.5S52.634,36,48.495,36H30V21H48.495z M11.388,15h11.225
			l-1.333,4h-8.559L11.388,15z M2,28.5C2,24.364,5.366,21,9.505,21H12h10h6v15H9.505C5.366,36,2,32.636,2,28.5z"/>
		<path d="M16.207,25.672c-0.391-0.391-1.023-0.391-1.414,0l-2.121,2.121c-0.391,0.391-0.391,1.023,0,1.414l2.121,2.121
			c0.195,0.195,0.451,0.293,0.707,0.293s0.512-0.098,0.707-0.293l2.121-2.121c0.391-0.391,0.391-1.023,0-1.414L16.207,25.672z
			 M15.5,29.207L14.793,28.5l0.707-0.707l0.707,0.707L15.5,29.207z"/>
		<path d="M41.793,31.328c0.195,0.195,0.451,0.293,0.707,0.293s0.512-0.098,0.707-0.293l2.121-2.121
			c0.391-0.391,0.391-1.023,0-1.414l-2.121-2.121c-0.391-0.391-1.023-0.391-1.414,0l-2.121,2.121c-0.391,0.391-0.391,1.023,0,1.414
			L41.793,31.328z M42.5,27.793l0.707,0.707L42.5,29.207L41.793,28.5L42.5,27.793z"/>
	</g>
</g>
</svg>